<svg width="209" height="64" viewBox="0 0 209 64" fill="none" xmlns="http://www.w3.org/2000/svg">
<g filter="url(#filter0_d_1_7)">
<path d="M74.8345 27.2192V28.4995C74.8345 30.5529 74.5544 32.396 73.9944 34.0288C73.4342 35.6616 72.6438 37.0532 71.6231 38.2036C70.6025 39.3416 69.3827 40.2137 67.9637 40.8198C66.5572 41.4259 64.9951 41.729 63.2774 41.729C61.5721 41.729 60.01 41.4259 58.5911 40.8198C57.1845 40.2137 55.9647 39.3416 54.9315 38.2036C53.8984 37.0532 53.0956 35.6616 52.5231 34.0288C51.9629 32.396 51.6829 30.5529 51.6829 28.4995V27.2192C51.6829 25.1535 51.9629 23.3104 52.5231 21.6899C53.0832 20.0571 53.8736 18.6655 54.8942 17.5151C55.9273 16.3647 57.1472 15.4865 58.5536 14.8804C59.9727 14.2743 61.5348 13.9712 63.2401 13.9712C64.9577 13.9712 66.5198 14.2743 67.9264 14.8804C69.3454 15.4865 70.5652 16.3647 71.5858 17.5151C72.6189 18.6655 73.4156 20.0571 73.9756 21.6899C74.5482 23.3104 74.8345 25.1535 74.8345 27.2192ZM69.1773 28.4995V27.1821C69.1773 25.7472 69.0466 24.4855 68.7852 23.397C68.5238 22.3084 68.138 21.3931 67.6276 20.6509C67.1173 19.9087 66.495 19.3521 65.7606 18.981C65.0261 18.5975 64.186 18.4058 63.2401 18.4058C62.2941 18.4058 61.4539 18.5975 60.7195 18.981C59.9975 19.3521 59.3814 19.9087 58.8711 20.6509C58.3732 21.3931 57.9936 22.3084 57.7321 23.397C57.4708 24.4855 57.3401 25.7472 57.3401 27.1821V28.4995C57.3401 29.922 57.4708 31.1838 57.7321 32.2847C57.9936 33.3732 58.3795 34.2948 58.8897 35.0493C59.4001 35.7915 60.0225 36.3543 60.7568 36.7378C61.4912 37.1213 62.3314 37.313 63.2774 37.313C64.2234 37.313 65.0635 37.1213 65.7979 36.7378C66.5323 36.3543 67.1484 35.7915 67.6463 35.0493C68.1442 34.2948 68.5238 33.3732 68.7852 32.2847C69.0466 31.1838 69.1773 29.922 69.1773 28.4995ZM83.9084 25.6606V41.3579H78.5313V21.2817H83.5911L83.9084 25.6606ZM89.995 21.1519L89.9018 26.106C89.6403 26.0688 89.323 26.0379 88.9495 26.0132C88.5886 25.9761 88.2587 25.9575 87.96 25.9575C87.2007 25.9575 86.541 26.0565 85.9809 26.2544C85.4332 26.4399 84.9726 26.7183 84.5992 27.0894C84.2383 27.4604 83.9645 27.9119 83.7777 28.4438C83.6034 28.9757 83.5039 29.5819 83.4791 30.2622L82.3961 29.9282C82.3961 28.6294 82.5268 27.4357 82.7882 26.3472C83.0496 25.2463 83.4293 24.2876 83.9271 23.4712C84.4374 22.6548 85.0598 22.0239 85.7941 21.5786C86.5286 21.1333 87.3687 20.9106 88.3147 20.9106C88.6135 20.9106 88.9184 20.9354 89.2296 20.9849C89.5407 21.022 89.7959 21.0776 89.995 21.1519ZM104.95 21.2817H109.823V40.6899C109.823 42.5207 109.413 44.0731 108.591 45.3472C107.782 46.6336 106.65 47.6047 105.193 48.2603C103.737 48.9282 102.044 49.2622 100.115 49.2622C99.2681 49.2622 98.372 49.1509 97.426 48.9282C96.4925 48.7056 95.5962 48.3592 94.7374 47.8892C93.891 47.4191 93.1815 46.8254 92.609 46.1079L94.9801 42.9536C95.6025 43.6711 96.3244 44.2277 97.1459 44.6235C97.9674 45.0317 98.8761 45.2358 99.8719 45.2358C100.843 45.2358 101.664 45.0565 102.336 44.6978C103.009 44.3514 103.525 43.8381 103.886 43.1577C104.247 42.4897 104.427 41.6795 104.427 40.7271V25.9204L104.95 21.2817ZM91.358 31.561V31.1714C91.358 29.6375 91.5448 28.2459 91.9182 26.9966C92.304 25.7349 92.8454 24.6525 93.5425 23.7495C94.252 22.8465 95.1108 22.1476 96.1191 21.6528C97.1272 21.158 98.2662 20.9106 99.5358 20.9106C100.88 20.9106 102.007 21.158 102.915 21.6528C103.824 22.1476 104.571 22.8527 105.155 23.7681C105.741 24.6711 106.195 25.741 106.519 26.978C106.855 28.2026 107.116 29.5448 107.303 31.0044V31.8579C107.116 33.2557 106.836 34.5545 106.462 35.7544C106.089 36.9543 105.597 38.0057 104.987 38.9087C104.378 39.7993 103.618 40.492 102.71 40.9868C101.814 41.4816 100.743 41.729 99.4985 41.729C98.2537 41.729 97.1272 41.4754 96.1191 40.9683C95.1233 40.4611 94.2707 39.7498 93.5612 38.8345C92.8517 37.9191 92.304 36.8429 91.9182 35.606C91.5448 34.369 91.358 33.0207 91.358 31.561ZM96.7352 31.1714V31.561C96.7352 32.3898 96.8161 33.1629 96.9779 33.8804C97.1397 34.5978 97.3887 35.2349 97.7247 35.7915C98.0732 36.3358 98.5027 36.7625 99.013 37.0718C99.5358 37.3687 100.152 37.5171 100.861 37.5171C101.845 37.5171 102.648 37.313 103.27 36.9048C103.892 36.4842 104.359 35.909 104.67 35.1792C104.981 34.4494 105.162 33.6082 105.212 32.6558V30.2251C105.186 29.4458 105.081 28.7469 104.895 28.1284C104.708 27.4976 104.446 26.9595 104.11 26.5142C103.774 26.0688 103.338 25.7225 102.803 25.4751C102.268 25.2277 101.633 25.104 100.899 25.104C100.189 25.104 99.5731 25.2648 99.0504 25.5864C98.54 25.8957 98.1105 26.3224 97.7621 26.8667C97.426 27.411 97.1708 28.0542 96.9965 28.7964C96.8223 29.5262 96.7352 30.3179 96.7352 31.1714ZM124.909 36.8306V27.8872C124.909 27.244 124.803 26.6935 124.592 26.2358C124.38 25.7658 124.051 25.4009 123.602 25.1411C123.166 24.8813 122.601 24.7515 121.903 24.7515C121.306 24.7515 120.789 24.8566 120.354 25.0669C119.918 25.2648 119.582 25.5555 119.345 25.939C119.109 26.3101 118.99 26.7492 118.99 27.2563H113.614C113.614 26.4028 113.813 25.5926 114.211 24.8257C114.609 24.0588 115.188 23.3846 115.947 22.8032C116.707 22.2095 117.609 21.7456 118.654 21.4116C119.713 21.0776 120.895 20.9106 122.202 20.9106C123.77 20.9106 125.165 21.1704 126.384 21.6899C127.604 22.2095 128.563 22.9888 129.259 24.0278C129.969 25.0669 130.324 26.3657 130.324 27.9243V36.5151C130.324 37.616 130.392 38.519 130.529 39.2241C130.666 39.9168 130.865 40.5229 131.127 41.0425V41.3579H125.694C125.432 40.8136 125.233 40.1333 125.096 39.3169C124.971 38.4881 124.909 37.6593 124.909 36.8306ZM125.618 29.1304L125.656 32.1548H122.65C121.941 32.1548 121.325 32.2352 120.801 32.396C120.279 32.5568 119.85 32.7856 119.513 33.0825C119.177 33.367 118.929 33.701 118.767 34.0845C118.617 34.4679 118.542 34.8885 118.542 35.3462C118.542 35.8039 118.648 36.2183 118.859 36.5894C119.072 36.9481 119.377 37.2326 119.775 37.4429C120.173 37.6408 120.639 37.7397 121.175 37.7397C121.984 37.7397 122.687 37.5789 123.285 37.2573C123.883 36.9357 124.342 36.5399 124.666 36.0698C125.003 35.5998 125.177 35.1545 125.19 34.7339L126.609 36.9976C126.409 37.5047 126.136 38.0304 125.786 38.5747C125.45 39.119 125.022 39.6323 124.498 40.1147C123.975 40.5848 123.347 40.9744 122.613 41.2837C121.878 41.5806 121.007 41.729 119.998 41.729C118.717 41.729 117.553 41.4754 116.508 40.9683C115.474 40.4487 114.652 39.7375 114.042 38.8345C113.446 37.9191 113.147 36.88 113.147 35.7173C113.147 34.6659 113.346 33.7319 113.744 32.9155C114.142 32.0991 114.728 31.4126 115.5 30.856C116.283 30.2869 117.26 29.8602 118.431 29.5757C119.6 29.2788 120.957 29.1304 122.501 29.1304H125.618ZM139.734 25.5679V41.3579H134.357V21.2817H139.398L139.734 25.5679ZM138.949 30.6147H137.493C137.493 29.1304 137.686 27.7944 138.072 26.6069C138.458 25.4071 139 24.3866 139.697 23.5454C140.393 22.6919 141.221 22.0425 142.179 21.5972C143.15 21.1395 144.233 20.9106 145.428 20.9106C146.374 20.9106 147.24 21.0467 148.024 21.3188C148.807 21.591 149.48 22.0239 150.04 22.6177C150.613 23.2114 151.048 23.9969 151.347 24.9741C151.658 25.9513 151.814 27.145 151.814 28.5552V41.3579H146.399V28.5366C146.399 27.646 146.275 26.9533 146.026 26.4585C145.777 25.9637 145.409 25.6174 144.924 25.4194C144.451 25.2091 143.866 25.104 143.169 25.104C142.447 25.104 141.819 25.2463 141.284 25.5308C140.76 25.8153 140.325 26.2111 139.977 26.7183C139.64 27.2131 139.385 27.7944 139.211 28.4624C139.037 29.1304 138.949 29.8478 138.949 30.6147ZM161.579 21.2817V41.3579H156.182V21.2817H161.579ZM155.846 16.0493C155.846 15.27 156.12 14.6268 156.668 14.1196C157.216 13.6125 157.95 13.3589 158.871 13.3589C159.78 13.3589 160.508 13.6125 161.056 14.1196C161.616 14.6268 161.896 15.27 161.896 16.0493C161.896 16.8286 161.616 17.4718 161.056 17.979C160.508 18.4862 159.78 18.7397 158.871 18.7397C157.95 18.7397 157.216 18.4862 156.668 17.979C156.12 17.4718 155.846 16.8286 155.846 16.0493ZM174.368 37.5542C175.027 37.5542 175.613 37.4305 176.123 37.1831C176.633 36.9233 177.032 36.5646 177.318 36.1069C177.616 35.6369 177.772 35.0864 177.784 34.4556H182.844C182.832 35.8657 182.452 37.1213 181.706 38.2222C180.958 39.3107 179.957 40.1704 178.699 40.8013C177.442 41.4198 176.036 41.729 174.48 41.729C172.911 41.729 171.543 41.4692 170.372 40.9497C169.214 40.4302 168.25 39.7127 167.478 38.7974C166.707 37.8696 166.128 36.7935 165.742 35.5688C165.356 34.3319 165.163 33.0083 165.163 31.5981V31.0601C165.163 29.6375 165.356 28.314 165.742 27.0894C166.128 25.8524 166.707 24.7762 167.478 23.8608C168.25 22.9331 169.214 22.2095 170.372 21.6899C171.53 21.1704 172.887 20.9106 174.443 20.9106C176.098 20.9106 177.548 21.2261 178.793 21.8569C180.049 22.4878 181.034 23.3908 181.743 24.5659C182.464 25.7287 182.832 27.1079 182.844 28.7036H177.784C177.772 28.0356 177.628 27.4295 177.355 26.8853C177.094 26.341 176.708 25.908 176.198 25.5864C175.699 25.2524 175.084 25.0854 174.349 25.0854C173.565 25.0854 172.924 25.2524 172.426 25.5864C171.928 25.908 171.543 26.3534 171.268 26.9224C170.994 27.479 170.802 28.116 170.689 28.8335C170.59 29.5386 170.54 30.2808 170.54 31.0601V31.5981C170.54 32.3774 170.59 33.1258 170.689 33.8433C170.789 34.5607 170.976 35.1978 171.25 35.7544C171.536 36.311 171.928 36.7502 172.426 37.0718C172.924 37.3934 173.571 37.5542 174.368 37.5542ZM191.34 12.8394V41.3579H185.962V12.8394H191.34ZM204.073 21.2817L195.297 31.2271L190.593 35.9585L188.632 32.0991L192.366 27.3862L197.613 21.2817H204.073ZM198.49 41.3579L192.516 32.0806L196.231 28.8521L204.689 41.3579H198.49Z" fill="#274C5B"/>
<path d="M5.86227 41.9263H23.4116H40.9609" stroke="#7EB693" stroke-width="2" stroke-miterlimit="10"/>
<path d="M9.82722 48.3579H23.4116H36.9959" stroke="#7EB693" stroke-width="2" stroke-miterlimit="10"/>
<path d="M22.9084 1.35791V8.35791V15.3579" stroke="#7EB693" stroke-width="2" stroke-miterlimit="10"/>
<path d="M22.9835 14.6421V41.0737" stroke="#7EB693" stroke-width="2" stroke-miterlimit="10"/>
<path d="M34.1123 4.41064L22.9835 15.4949" stroke="#7EB693" stroke-width="2" stroke-miterlimit="10"/>
<path d="M38.3926 8.67383L22.9835 24.0212" stroke="#7EB693" stroke-width="2" stroke-miterlimit="10"/>
<path d="M40.9609 15.4946L22.9835 32.5473" stroke="#7EB693" stroke-width="2" stroke-miterlimit="10"/>
<path d="M41.8169 23.1685L22.9835 41.9264" stroke="#7EB693" stroke-width="2" stroke-miterlimit="10"/>
<path d="M41.817 31.6948L31.5442 41.9264" stroke="#7EB693" stroke-width="2" stroke-miterlimit="10"/>
<path d="M5.00625 31.6948L15.2791 41.9264" stroke="#7EB693" stroke-width="2" stroke-miterlimit="10"/>
<path d="M12.7108 4.41064L22.9835 15.4949" stroke="#7EB693" stroke-width="2" stroke-miterlimit="10"/>
<path d="M8.43047 8.67383L22.9835 24.0212" stroke="#7EB693" stroke-width="2" stroke-miterlimit="10"/>
<path d="M5.86227 14.6421L22.9835 32.5474" stroke="#7EB693" stroke-width="2" stroke-miterlimit="10"/>
<path d="M5.00625 22.3159L22.9836 41.0738" stroke="#7EB693" stroke-width="2" stroke-miterlimit="10"/>
<path d="M23.4116 54.7158C13.2476 54.7158 5.00625 46.2635 5.00625 35.8351V19.8806C5.00625 9.45419 13.2476 1 23.4116 1C33.5774 1 41.817 9.45419 41.817 19.8806V35.8351C41.8188 46.2635 33.5774 54.7158 23.4116 54.7158Z" stroke="#7EB693" stroke-width="2" stroke-miterlimit="10"/>
</g>
<defs>
<filter id="filter0_d_1_7" x="0" y="0" width="209.25" height="64" filterUnits="userSpaceOnUse" color-interpolation-filters="sRGB">
<feFlood flood-opacity="0" result="BackgroundImageFix"/>
<feColorMatrix in="SourceAlpha" type="matrix" values="0 0 0 0 0 0 0 0 0 0 0 0 0 0 0 0 0 0 127 0" result="hardAlpha"/>
<feOffset dy="4"/>
<feGaussianBlur stdDeviation="2"/>
<feComposite in2="hardAlpha" operator="out"/>
<feColorMatrix type="matrix" values="0 0 0 0 0 0 0 0 0 0 0 0 0 0 0 0 0 0 0.25 0"/>
<feBlend mode="normal" in2="BackgroundImageFix" result="effect1_dropShadow_1_7"/>
<feBlend mode="normal" in="SourceGraphic" in2="effect1_dropShadow_1_7" result="shape"/>
</filter>
</defs>
</svg>
