<svg width="201" height="38" viewBox="0 0 201 38" fill="none" xmlns="http://www.w3.org/2000/svg">
<path d="M23.9805 3.46289C24.6016 3.46289 25.1992 3.7207 25.7734 4.23633C26.3594 4.75195 26.6523 5.32617 26.6523 5.95898C26.6523 6.5918 26.4941 7.41797 26.1777 8.4375C25.8613 9.44531 25.416 10.5234 24.8418 11.6719C24.2793 12.8086 23.5879 13.9922 22.7676 15.2227C21.959 16.4414 21.0742 17.6309 20.1133 18.791C19.1641 19.9395 18.1152 21.0352 16.9668 22.0781C15.8301 23.1094 14.6758 24.0117 13.5039 24.7852C10.9492 26.4727 8.45312 27.3164 6.01562 27.3164C5.17188 27.3164 4.42188 27.0938 3.76562 26.6484C3.10938 26.2031 2.59961 25.7637 2.23633 25.3301C1.4043 24.334 0.988281 22.957 0.988281 21.1992C0.988281 19.4297 1.56836 17.3555 2.72852 14.9766C3.90039 12.5977 5.49414 10.3535 7.50977 8.24414C9.53711 6.12305 11.8047 4.38867 14.3125 3.04102C16.8203 1.68164 19.2051 1.00195 21.4668 1.00195C21.9121 1.00195 22.334 1.10156 22.7324 1.30078C23.1309 1.5 23.3301 1.73438 23.3301 2.00391C23.3301 2.26172 23.2656 2.47852 23.1367 2.6543C23.0078 2.81836 22.8848 3 22.7676 3.19922C22.6504 3.38672 22.5508 3.52148 22.4688 3.60352C22.8555 3.50977 23.3594 3.46289 23.9805 3.46289ZM17.4238 11.584C17.4238 11.8184 17.3418 11.9355 17.1777 11.9355C17.0137 11.9355 16.6738 11.6543 16.1582 11.0918C15.6426 10.5176 15.3848 10.0371 15.3848 9.65039C15.3848 8.74805 15.9883 7.72266 17.1953 6.57422C18.4141 5.42578 19.7676 4.55273 21.2559 3.95508C19.6152 4.04883 17.7109 4.74609 15.543 6.04688C13.375 7.34766 11.4766 8.91797 9.84766 10.7578C8.21875 12.5859 6.90039 14.4961 5.89258 16.4883C4.89648 18.4805 4.39844 20.0977 4.39844 21.3398C4.39844 22.1016 4.56836 22.7578 4.9082 23.3086C5.24805 23.8477 5.82227 24.1172 6.63086 24.1172C7.45117 24.1172 8.43555 23.8359 9.58398 23.2734C10.7324 22.7109 11.8516 21.9727 12.9414 21.0586C16.6914 17.8828 19.6211 14.3555 21.7305 10.4766C22.5859 8.88281 23.0137 7.78125 23.0137 7.17188C23.0137 6.92578 22.9316 6.80273 22.7676 6.80273C22.2871 6.80273 21.6074 7.11328 20.7285 7.73438C19.8496 8.34375 19.0703 9.01758 18.3906 9.75586C17.7109 10.4941 17.3711 11.0273 17.3711 11.3555L17.4238 11.584ZM21.4225 21.3398L21.2819 20.8477C21.2819 20.7539 21.3288 20.6777 21.4225 20.6191C21.5163 20.5488 21.6334 20.4141 21.7741 20.2148C21.9264 20.0156 22.0319 19.8867 22.0905 19.8281C22.1608 19.7695 22.2545 19.6875 22.3717 19.582C22.5006 19.4648 22.6061 19.3711 22.6881 19.3008C22.9225 19.1016 23.0866 18.9902 23.1803 18.9668C23.2741 18.9316 23.4381 18.8789 23.6725 18.8086C24.3991 18.5742 25.0143 18.4102 25.5182 18.3164C28.5065 13.3242 30.903 9.42188 32.7077 6.60938C34.5241 3.78516 35.5553 2.22656 35.8014 1.93359C36.0592 1.62891 36.5104 1.35938 37.1549 1.125C37.7995 0.890625 38.2682 0.779297 38.5612 0.791016C38.8659 0.791016 39.0182 0.919922 39.0182 1.17773C39.0182 1.2832 38.9772 1.42383 38.8952 1.59961C38.8248 1.77539 38.1862 2.8125 36.9791 4.71094C32.5143 11.707 29.6549 16.2422 28.401 18.3164L28.8405 18.4746C31.5592 17.9707 32.9713 17.7188 33.0768 17.7188C33.194 17.7188 33.4752 17.8008 33.9205 17.9648C34.3776 18.1172 34.6764 18.2051 34.817 18.2285C35.0866 18.2754 35.2213 18.498 35.2213 18.8965C35.2213 19.2832 35.0983 19.5 34.8522 19.5469C34.653 19.582 34.1725 19.6992 33.4108 19.8984C32.6608 20.0859 32.0573 20.2324 31.6002 20.3379C32.2213 21.0762 32.5319 21.8613 32.5319 22.6934C32.5319 23.5254 32.1627 24.627 31.4245 25.998C30.6862 27.3574 29.7428 28.7051 28.5944 30.041C27.4459 31.377 26.2389 32.6367 24.9733 33.8203C23.7194 35.0039 22.5123 35.959 21.3522 36.6855C20.192 37.4238 19.3366 37.793 18.7858 37.793C18.2233 37.793 17.7252 37.6406 17.2916 37.3359C16.8463 37.043 16.6237 36.6035 16.6237 36.0176C16.6237 35.4316 16.7467 34.7461 16.9928 33.9609C17.2272 33.1875 17.485 32.4727 17.7663 31.8164C18.0475 31.1719 18.528 30.2402 19.2077 29.0215C19.9342 27.709 21.2467 25.4648 23.1452 22.2891C22.817 22.3477 22.5651 22.377 22.3893 22.377C22.2135 22.377 22.0495 22.3359 21.8971 22.2539C21.7448 22.1719 21.6393 22.0664 21.5807 21.9375C21.4752 21.7031 21.4225 21.5039 21.4225 21.3398ZM26.362 28.916C27.2409 27.8965 27.9791 26.8301 28.5768 25.7168C29.1745 24.5918 29.4733 23.6777 29.4733 22.9746C29.4733 22.2598 29.1276 21.6328 28.4362 21.0938L26.485 21.5332C26.2858 21.8613 25.9752 22.3828 25.5534 23.0977C25.1432 23.8008 24.8034 24.375 24.5338 24.8203C24.276 25.2656 23.942 25.8398 23.5319 26.543C23.1217 27.2461 22.776 27.8379 22.4948 28.3184C22.2252 28.7988 21.9205 29.3379 21.5807 29.9355C21.2526 30.5449 20.983 31.0605 20.7721 31.4824C20.5495 31.916 20.3385 32.3438 20.1393 32.7656C19.7526 33.5859 19.5592 34.1191 19.5592 34.3652C19.5592 34.6113 19.6237 34.7344 19.7526 34.7344C19.987 34.7344 20.4733 34.4648 21.2116 33.9258C21.9381 33.3984 22.7584 32.6836 23.6725 31.7812C24.5983 30.8906 25.4948 29.9355 26.362 28.916ZM34.7552 21.3398L34.6145 20.8477C34.6145 20.7539 34.6614 20.6777 34.7552 20.6191C34.8489 20.5488 34.9661 20.4141 35.1067 20.2148C35.2591 20.0156 35.3645 19.8867 35.4231 19.8281C35.4934 19.7695 35.5872 19.6875 35.7044 19.582C35.8333 19.4648 35.9388 19.3711 36.0208 19.3008C36.2552 19.1016 36.4192 18.9902 36.513 18.9668C36.6067 18.9316 36.7708 18.8789 37.0052 18.8086C37.7317 18.5742 38.347 18.4102 38.8509 18.3164C41.8391 13.3242 44.2356 9.42188 46.0403 6.60938C47.8567 3.78516 48.888 2.22656 49.1341 1.93359C49.3919 1.62891 49.843 1.35938 50.4876 1.125C51.1321 0.890625 51.6009 0.779297 51.8938 0.791016C52.1985 0.791016 52.3509 0.919922 52.3509 1.17773C52.3509 1.2832 52.3098 1.42383 52.2278 1.59961C52.1575 1.77539 51.5188 2.8125 50.3118 4.71094C45.847 11.707 42.9876 16.2422 41.7337 18.3164L42.1731 18.4746C44.8919 17.9707 46.304 17.7188 46.4095 17.7188C46.5266 17.7188 46.8079 17.8008 47.2532 17.9648C47.7102 18.1172 48.0091 18.2051 48.1497 18.2285C48.4192 18.2754 48.554 18.498 48.554 18.8965C48.554 19.2832 48.4309 19.5 48.1848 19.5469C47.9856 19.582 47.5052 19.6992 46.7434 19.8984C45.9934 20.0859 45.3899 20.2324 44.9329 20.3379C45.554 21.0762 45.8645 21.8613 45.8645 22.6934C45.8645 23.5254 45.4954 24.627 44.7571 25.998C44.0188 27.3574 43.0755 28.7051 41.927 30.041C40.7786 31.377 39.5716 32.6367 38.3059 33.8203C37.052 35.0039 35.845 35.959 34.6848 36.6855C33.5247 37.4238 32.6692 37.793 32.1184 37.793C31.5559 37.793 31.0579 37.6406 30.6243 37.3359C30.179 37.043 29.9563 36.6035 29.9563 36.0176C29.9563 35.4316 30.0794 34.7461 30.3255 33.9609C30.5598 33.1875 30.8177 32.4727 31.0989 31.8164C31.3802 31.1719 31.8606 30.2402 32.5403 29.0215C33.2669 27.709 34.5794 25.4648 36.4778 22.2891C36.1497 22.3477 35.8977 22.377 35.722 22.377C35.5462 22.377 35.3821 22.3359 35.2298 22.2539C35.0774 22.1719 34.972 22.0664 34.9134 21.9375C34.8079 21.7031 34.7552 21.5039 34.7552 21.3398ZM39.6946 28.916C40.5735 27.8965 41.3118 26.8301 41.9095 25.7168C42.5071 24.5918 42.8059 23.6777 42.8059 22.9746C42.8059 22.2598 42.4602 21.6328 41.7688 21.0938L39.8177 21.5332C39.6184 21.8613 39.3079 22.3828 38.886 23.0977C38.4759 23.8008 38.136 24.375 37.8665 24.8203C37.6087 25.2656 37.2747 25.8398 36.8645 26.543C36.4544 27.2461 36.1087 27.8379 35.8274 28.3184C35.5579 28.7988 35.2532 29.3379 34.9134 29.9355C34.5852 30.5449 34.3157 31.0605 34.1048 31.4824C33.8821 31.916 33.6712 32.3438 33.472 32.7656C33.0852 33.5859 32.8919 34.1191 32.8919 34.3652C32.8919 34.6113 32.9563 34.7344 33.0852 34.7344C33.3196 34.7344 33.8059 34.4648 34.5442 33.9258C35.2708 33.3984 36.0911 32.6836 37.0052 31.7812C37.9309 30.8906 38.8274 29.9355 39.6946 28.916ZM61.1659 13.8516C61.1659 14.625 60.8495 15.3047 60.2167 15.8906C59.5956 16.4766 58.8866 16.7695 58.0898 16.7695C57.832 16.7695 57.662 16.7109 57.58 16.5938C57.498 16.4648 57.457 16.3008 57.457 16.1016C57.457 15.9023 57.4804 15.709 57.5273 15.5215C57.1054 15.6621 56.6366 15.8789 56.121 16.1719C55.6054 16.4648 54.9726 16.8984 54.2226 17.4727C53.4726 18.0469 53.0976 18.4746 53.0976 18.7559C53.0976 18.8496 53.2323 18.8965 53.5019 18.8965C53.7831 18.8965 54.2109 18.8027 54.7851 18.6152C55.3593 18.416 55.7577 18.3164 55.9804 18.3164C56.2148 18.3164 56.3671 18.3281 56.4374 18.3516C56.5898 18.4336 56.7538 18.6152 56.9296 18.8965C57.1054 19.166 57.1933 19.3828 57.1933 19.5469C57.1933 19.6992 57.0409 19.9043 56.7363 20.1621C56.4316 20.4199 56.0859 20.6191 55.6991 20.7598C55.3124 20.8887 55.0546 20.9883 54.9257 21.0586C52.453 22.4414 51.2167 23.3906 51.2167 23.9062C51.2167 24.8203 51.996 25.2773 53.5546 25.2773C54.5507 25.2773 55.5527 24.9609 56.5605 24.3281C57.4159 23.7891 58.1835 23.2441 58.8632 22.6934C59.5546 22.1309 59.9882 21.7852 60.164 21.6562C60.3515 21.5273 60.4921 21.4629 60.5859 21.4629C60.8905 21.4629 61.0429 21.8027 61.0429 22.4824C61.0429 23.1621 61.0019 23.6133 60.9198 23.8359C60.8378 24.0469 60.6034 24.3105 60.2167 24.627C57.7089 26.666 55.3359 27.6855 53.0976 27.6855C51.9023 27.6855 50.9472 27.5215 50.2323 27.1934C48.9198 26.5957 48.2636 25.6816 48.2636 24.4512C48.2636 22.834 49.3827 21.6094 51.621 20.7773C51.1757 20.5781 50.8886 20.3262 50.7597 20.0215C50.6308 19.7051 50.5663 19.207 50.5663 18.5273C50.5663 17.8359 50.8827 17.1094 51.5155 16.3477C52.1601 15.5742 52.9452 14.9414 53.871 14.4492C55.9335 13.3359 57.7734 12.7793 59.3905 12.7793C59.7773 12.7793 60.1698 12.873 60.5683 13.0605C60.9667 13.248 61.1659 13.5117 61.1659 13.8516ZM66.606 17.4199C69.3716 14.2793 71.7271 12.709 73.6724 12.709C74.1529 12.709 74.5455 12.8555 74.8502 13.1484C75.1666 13.4297 75.3248 13.7988 75.3248 14.2559C75.3248 14.7129 74.9966 15.4805 74.3404 16.5586C73.6959 17.625 73.0982 18.5273 72.5474 19.2656C72.2545 19.6406 71.9205 19.8281 71.5455 19.8281C71.1822 19.8281 70.8951 19.6934 70.6841 19.4238C70.4849 19.1543 70.3853 18.8379 70.3853 18.4746C70.3853 17.666 70.8189 16.752 71.6861 15.7324L71.6509 15.6973C71.2642 15.7324 70.3033 16.4941 68.7681 17.9824C67.2447 19.4707 65.9439 20.8066 64.8658 21.9902C63.7994 23.1621 62.6392 24.5918 61.3853 26.2793C61.022 26.7832 60.7115 27.0352 60.4537 27.0352C60.2076 27.0352 59.8795 26.959 59.4693 26.8066C59.0474 26.6426 58.7955 26.5254 58.7134 26.4551C58.6197 26.3848 58.5728 26.2676 58.5728 26.1035C58.5728 25.9395 58.6197 25.752 58.7134 25.541C58.8072 25.3184 58.983 25.0078 59.2408 24.6094C59.4869 24.2109 59.8619 23.5664 60.3658 22.6758C60.8814 21.7852 61.6783 20.4375 62.7564 18.6328C63.8345 16.8281 64.4791 15.7383 64.69 15.3633C65.1353 14.5898 65.4986 14.0273 65.7798 13.6758C66.3072 13.0078 67.1978 12.6738 68.4517 12.6738C68.733 12.6738 68.8736 12.8496 68.8736 13.2012C68.8736 13.752 68.3638 14.7891 67.3443 16.3125L66.606 17.4199ZM91.4081 8.13867C91.0213 8.41992 90.828 8.73633 90.828 9.08789C90.828 9.42773 91.0858 9.59766 91.6014 9.59766C91.8241 9.59766 92.1112 9.5332 92.4627 9.4043H92.4803C92.5389 9.4043 92.5682 9.52734 92.5682 9.77344C92.5682 10.0078 92.5448 10.1484 92.4979 10.1953C91.2909 11.0508 90.2713 11.4785 89.4393 11.4785C88.6073 11.4785 88.0038 11.2441 87.6288 10.7754C87.2538 10.3066 87.0663 9.69727 87.0663 8.94727C87.0663 8.18555 87.4823 7.38281 88.3143 6.53906C89.1463 5.68359 90.2655 4.89844 91.6717 4.18359C93.078 3.45703 94.8182 2.85938 96.8924 2.39062C98.9784 1.92188 101.316 1.6875 103.906 1.6875C106.508 1.6875 108.681 2.19727 110.428 3.2168C112.174 4.22461 113.047 5.37891 113.047 6.67969C113.047 7.96875 112.59 9.28125 111.676 10.6172C110.773 11.9531 109.637 13.1191 108.265 14.1152C106.906 15.0996 105.394 15.9082 103.73 16.541C102.066 17.1738 100.578 17.4902 99.2655 17.4902C97.953 17.4902 96.9334 16.9629 96.2069 15.9082C94.4256 18.709 93.2186 20.625 92.5858 21.6562C91.953 22.6758 91.4139 23.5371 90.9686 24.2402C90.535 24.9316 90.1952 25.4766 89.9491 25.875C89.7147 26.2734 89.5916 26.4785 89.5799 26.4902C89.3338 26.7598 89.0702 26.8945 88.7889 26.8945L87.9276 27.0527L87.5057 27.0176H87.2069C86.5155 27.0176 86.1698 26.8008 86.1698 26.3672C86.1698 25.8164 87.3241 23.7422 89.6327 20.1445C91.9413 16.5469 94.1151 13.2832 96.1541 10.3535C98.2049 7.42383 99.4002 5.77734 99.7401 5.41406C100.08 5.05078 100.379 4.83984 100.637 4.78125C100.906 4.71094 101.334 4.67578 101.92 4.67578H102.799C102.951 4.67578 103.027 4.79883 103.027 5.04492C103.027 5.2793 102.998 5.44336 102.939 5.53711C101.908 6.97852 100.045 9.82617 97.3495 14.0801C97.4432 14.2676 97.5956 14.3848 97.8065 14.4316C98.0291 14.4785 98.2635 14.502 98.5096 14.502H99.0194C100.098 14.502 101.264 14.2441 102.517 13.7285C103.771 13.2012 104.873 12.5742 105.822 11.8477C106.771 11.1211 107.562 10.3652 108.195 9.58008C108.84 8.7832 109.162 8.10352 109.162 7.54102C109.162 6.97852 108.986 6.47461 108.635 6.0293C108.283 5.58398 107.803 5.23242 107.193 4.97461C105.998 4.4707 104.545 4.21875 102.834 4.21875C101.135 4.21875 99.078 4.66406 96.6639 5.55469C94.2616 6.43359 92.5096 7.29492 91.4081 8.13867ZM113.741 17.4199C116.506 14.2793 118.862 12.709 120.807 12.709C121.288 12.709 121.68 12.8555 121.985 13.1484C122.301 13.4297 122.459 13.7988 122.459 14.2559C122.459 14.7129 122.131 15.4805 121.475 16.5586C120.831 17.625 120.233 18.5273 119.682 19.2656C119.389 19.6406 119.055 19.8281 118.68 19.8281C118.317 19.8281 118.03 19.6934 117.819 19.4238C117.62 19.1543 117.52 18.8379 117.52 18.4746C117.52 17.666 117.954 16.752 118.821 15.7324L118.786 15.6973C118.399 15.7324 117.438 16.4941 115.903 17.9824C114.379 19.4707 113.079 20.8066 112 21.9902C110.934 23.1621 109.774 24.5918 108.52 26.2793C108.157 26.7832 107.846 27.0352 107.588 27.0352C107.342 27.0352 107.014 26.959 106.604 26.8066C106.182 26.6426 105.93 26.5254 105.848 26.4551C105.754 26.3848 105.707 26.2676 105.707 26.1035C105.707 25.9395 105.754 25.752 105.848 25.541C105.942 25.3184 106.118 25.0078 106.375 24.6094C106.622 24.2109 106.997 23.5664 107.5 22.6758C108.016 21.7852 108.813 20.4375 109.891 18.6328C110.969 16.8281 111.614 15.7383 111.825 15.3633C112.27 14.5898 112.633 14.0273 112.915 13.6758C113.442 13.0078 114.332 12.6738 115.586 12.6738C115.868 12.6738 116.008 12.8496 116.008 13.2012C116.008 13.752 115.499 14.7891 114.479 16.3125L113.741 17.4199ZM132.874 13.6055C133.226 13.6055 133.583 13.7637 133.946 14.0801C134.321 14.3965 134.509 14.8828 134.509 15.5391C134.509 16.1836 134.28 17.0273 133.823 18.0703C133.366 19.1016 132.739 20.1562 131.942 21.2344C131.146 22.3008 130.267 23.3086 129.306 24.2578C128.357 25.1953 127.325 25.9688 126.212 26.5781C125.11 27.1758 124.109 27.4746 123.206 27.4746C122.304 27.4746 121.577 27.1934 121.026 26.6309C120.487 26.0566 120.218 25.2656 120.218 24.2578C120.218 23.2383 120.464 22.1133 120.956 20.8828C121.46 19.6523 122.105 18.5684 122.89 17.6309C123.675 16.6816 124.525 15.832 125.439 15.082C127.349 13.5469 129.025 12.7793 130.466 12.7793C131.11 12.7793 131.597 12.9375 131.925 13.2539C132.042 13.3594 132.101 13.4531 132.101 13.5352V13.6406C132.265 13.6172 132.523 13.6055 132.874 13.6055ZM131.099 15.9434H130.976C130.566 15.9434 130.36 15.6445 130.36 15.0469C129.505 15.3281 128.609 15.8203 127.671 16.5234C126.734 17.2266 125.896 18.0586 125.157 19.0195C123.657 20.9414 122.896 22.5645 122.872 23.8887C122.872 24.5449 123.112 24.873 123.593 24.873C124.073 24.873 124.788 24.5566 125.737 23.9238C126.687 23.291 127.624 22.3887 128.55 21.2168C129.487 20.0449 130.185 19.0312 130.642 18.1758C131.11 17.3086 131.345 16.7227 131.345 16.418C131.345 16.1016 131.263 15.9434 131.099 15.9434ZM156.56 0.650391C156.783 0.650391 156.959 0.720703 157.088 0.861328C157.217 1.00195 157.281 1.14844 157.281 1.30078C157.281 1.44141 157.164 1.71094 156.929 2.10938C156.707 2.49609 156.185 3.35156 155.365 4.67578C154.545 5.98828 153.906 7.01953 153.449 7.76953C150.789 12.0938 148.703 15.75 147.191 18.7383C145.679 21.7266 144.924 23.5312 144.924 24.1523V24.293C144.924 24.7734 145.099 25.0137 145.451 25.0137C145.803 25.0137 146.224 24.8496 146.717 24.5215C147.22 24.1934 147.66 23.8418 148.035 23.4668C148.41 23.0918 148.785 22.7051 149.16 22.3066C149.547 21.8965 149.781 21.6562 149.863 21.5859C149.945 21.5156 150.051 21.4805 150.179 21.4805C150.379 21.4805 150.508 21.6094 150.566 21.8672C150.625 22.1133 150.654 22.4648 150.654 22.9219C150.654 23.3672 150.619 23.6602 150.549 23.8008C150.209 24.457 149.459 25.2598 148.299 26.209C147.15 27.1465 146.06 27.6152 145.029 27.6152C143.271 27.6152 142.392 26.8711 142.392 25.3828C142.392 24.457 142.744 23.2441 143.447 21.7441C142.498 22.9746 141.531 24.0234 140.547 24.8906C138.719 26.4844 137.131 27.2812 135.783 27.2812C135.033 27.2812 134.476 27.0176 134.113 26.4902C133.761 25.9629 133.586 25.207 133.586 24.2227C133.586 23.2266 133.972 22.0371 134.746 20.6543C135.519 19.2715 136.48 18.0293 137.629 16.9277C138.789 15.8145 140.072 14.8887 141.478 14.1504C142.885 13.4004 144.179 13.0254 145.363 13.0254C145.738 13.0254 146.178 13.2539 146.681 13.7109C147.021 13.1719 147.648 12.0938 148.562 10.4766C151.433 5.63672 153.332 2.68359 154.258 1.61719C154.75 0.972656 155.517 0.650391 156.56 0.650391ZM145.609 15.3633C143.922 15.7383 142.351 16.5234 140.898 17.7188C139.445 18.9141 138.355 20.168 137.629 21.4805C136.902 22.7812 136.539 23.625 136.539 24.0117C136.539 24.3984 136.621 24.5918 136.785 24.5918C137.488 24.5918 139.228 23.0215 142.006 19.8809C143.388 18.334 144.59 16.8281 145.609 15.3633ZM164.567 21.4805C164.789 21.4805 164.924 21.6504 164.971 21.9902C165.018 22.3301 165.041 22.6816 165.041 23.0449C165.041 23.4082 165.006 23.6602 164.936 23.8008C164.596 24.457 163.852 25.2598 162.704 26.209C161.555 27.1465 160.465 27.6152 159.434 27.6152C158.801 27.6152 158.215 27.4219 157.676 27.0352C157.137 26.6602 156.868 25.998 156.868 25.0488C156.868 24.0996 157.12 23.168 157.623 22.2539C154.717 25.8984 152.438 27.7207 150.786 27.7207C150.129 27.7207 149.596 27.4863 149.186 27.0176C148.788 26.5488 148.588 26.0684 148.588 25.5762C148.588 25.0723 148.659 24.5566 148.799 24.0293C148.94 23.4902 149.086 23.0098 149.239 22.5879C149.403 22.166 149.637 21.6445 149.942 21.0234C150.258 20.4023 150.493 19.9512 150.645 19.6699C150.797 19.3887 151.038 18.9668 151.366 18.4043C151.705 17.8301 152.145 17.0625 152.684 16.1016C153.235 15.1406 153.686 14.4316 154.038 13.9746C154.401 13.5059 154.752 13.2715 155.092 13.2715C155.432 13.2598 155.731 13.3945 155.989 13.6758C156.246 13.957 156.375 14.1855 156.375 14.3613C156.375 14.5371 155.983 15.3281 155.198 16.7344C152.877 20.9297 151.717 23.373 151.717 24.0645C151.717 24.2402 151.782 24.3281 151.911 24.3281C152.473 24.3281 153.873 23.1094 156.112 20.6719C158.35 18.2344 159.645 16.6758 159.996 15.9961C160.348 15.3047 160.688 14.7246 161.016 14.2559C161.356 13.7871 161.608 13.5 161.772 13.3945C162.276 13.0664 162.926 12.8906 163.723 12.8672C163.852 12.8672 163.952 12.873 164.022 12.8848C164.092 12.8965 164.174 12.9961 164.268 13.1836C164.362 13.3711 164.409 13.5176 164.409 13.623C164.303 13.9512 163.834 14.8242 163.002 16.2422C162.182 17.6602 161.725 18.4629 161.631 18.6504C160.248 21.5098 159.557 23.373 159.557 24.2402C159.557 24.7324 159.745 24.9785 160.12 24.9785C160.799 24.8848 161.62 24.3398 162.58 23.3438C162.932 22.9805 163.278 22.6113 163.618 22.2363C163.969 21.8613 164.186 21.6445 164.268 21.5859C164.35 21.5156 164.45 21.4805 164.567 21.4805ZM175.702 23.0977C176.312 22.7109 176.704 22.4473 176.88 22.3066C177.056 22.1543 177.261 21.9785 177.495 21.7793C177.73 21.5801 177.923 21.4805 178.075 21.4805C178.31 21.4805 178.427 21.75 178.427 22.2891C178.427 22.8164 178.163 23.3906 177.636 24.0117C177.12 24.6211 176.476 25.1426 175.702 25.5762C174.929 25.998 174.103 26.3672 173.224 26.6836C171.478 27.3281 169.989 27.6504 168.759 27.6504C167.54 27.6504 166.439 27.252 165.454 26.4551C164.47 25.6465 163.978 24.5977 163.978 23.3086C163.978 22.0078 164.3 20.7129 164.944 19.4238C165.589 18.123 166.415 16.9863 167.423 16.0137C168.442 15.0293 169.62 14.2324 170.956 13.623C172.304 13.0137 173.634 12.709 174.946 12.709C175.579 12.709 176.148 12.8906 176.651 13.2539C177.155 13.6172 177.407 14.1152 177.407 14.748C177.407 15.3809 177.091 16.1426 176.458 17.0332C175.837 17.9121 175.204 18.3516 174.56 18.3516C173.81 18.3516 173.435 17.9941 173.435 17.2793C173.435 17.0918 173.61 16.7578 173.962 16.2773C174.314 15.7969 174.489 15.4746 174.489 15.3105C174.489 15.1348 174.425 15.0469 174.296 15.0469C173.651 15.0469 172.96 15.2695 172.222 15.7148C171.483 16.1602 170.81 16.6289 170.2 17.1211C169.603 17.6133 169.034 18.1641 168.495 18.7734C167.323 20.0977 166.737 21.4746 166.737 22.9043C166.737 23.4785 166.919 23.9766 167.282 24.3984C167.657 24.8086 168.278 25.0137 169.146 25.0137C170.024 25.0137 170.903 24.9141 171.782 24.7148C172.661 24.5039 173.382 24.2812 173.944 24.0469C174.519 23.8008 175.105 23.4844 175.702 23.0977ZM189.879 4.35938L190.599 4.53516C190.705 4.53516 190.799 4.58789 190.881 4.69336C190.963 4.79883 191.004 4.89844 191.004 4.99219C191.004 5.08594 190.881 5.33789 190.634 5.74805C190.388 6.1582 190.095 6.62695 189.756 7.1543C189.427 7.66992 189.252 7.95117 189.228 7.99805C190.142 7.92773 190.787 7.89258 191.162 7.89258C191.549 7.89258 191.812 7.92188 191.953 7.98047C192.093 8.02734 192.252 8.17383 192.427 8.41992C192.615 8.6543 192.785 8.83594 192.937 8.96484C193.09 9.08203 193.166 9.26367 193.166 9.50977C193.166 9.75586 193.013 9.9668 192.709 10.1426C192.416 10.3066 192.099 10.4062 191.759 10.4414C189.041 10.7109 187.541 10.8516 187.259 10.8633C186.31 12.3164 184.98 14.584 183.269 17.666C181.57 20.7363 180.668 22.6582 180.562 23.4316C180.515 23.7832 180.492 24.0703 180.492 24.293C180.492 24.75 180.732 24.9785 181.213 24.9785C181.693 24.9785 182.226 24.7969 182.812 24.4336C183.398 24.0586 183.937 23.6543 184.429 23.2207C185.742 22.0488 186.445 21.4629 186.539 21.4629C186.843 21.4629 186.996 21.9902 186.996 23.0449C186.996 23.6191 186.732 24.1348 186.205 24.5918C185.021 25.6113 184.025 26.3789 183.216 26.8945C182.408 27.4102 181.599 27.668 180.791 27.668C180.615 27.668 180.451 27.6504 180.299 27.6152C179.361 27.4395 178.67 27.0996 178.224 26.5957C177.791 26.0801 177.574 25.3887 177.574 24.5215C177.586 23.6543 177.843 22.6055 178.347 21.375C178.863 20.1328 179.508 18.8145 180.281 17.4199C181.547 15.1465 182.812 13.0137 184.078 11.0215L183.41 11.1094C182.05 11.2617 181.259 11.3379 181.037 11.3379H180.879C180.539 11.3379 180.211 11.2734 179.894 11.1445C179.578 11.0039 179.42 10.834 179.42 10.6348C179.42 10.4355 179.502 10.2422 179.666 10.0547C179.841 9.86719 179.947 9.7207 179.982 9.61523C180.064 9.35742 180.369 9.07031 180.896 8.75391C181.435 8.4375 181.84 8.27344 182.109 8.26172C182.379 8.23828 182.636 8.2207 182.883 8.20898C183.14 8.19727 183.422 8.18555 183.726 8.17383C184.043 8.16211 184.283 8.15039 184.447 8.13867L186.029 8.06836C187.013 6.5918 187.687 5.64258 188.05 5.2207C188.425 4.79883 188.642 4.57031 188.701 4.53516C188.759 4.48828 188.877 4.46484 189.052 4.46484L189.879 4.35938ZM187.813 23.4844L187.795 23.7656C187.795 24.0586 187.907 24.3105 188.129 24.5215C188.352 24.7324 188.557 24.8379 188.744 24.8379C190.151 24.8379 191.393 24.627 192.471 24.2051C193.561 23.7832 194.106 23.3613 194.106 22.9395C194.106 22.7402 193.907 22.5703 193.508 22.4297C193.121 22.2773 192.459 22.0957 191.522 21.8848C190.596 21.6621 189.922 21.4922 189.5 21.375C189.078 21.2461 188.744 21.1289 188.498 21.0234C188.252 20.918 188 20.7715 187.742 20.584C187.192 20.1973 186.916 19.623 186.916 18.8613C186.916 18.0879 187.198 17.3262 187.76 16.5762C188.334 15.8145 189.049 15.1641 189.905 14.625C190.76 14.0859 191.68 13.6113 192.664 13.2012C194.61 12.3926 196.244 11.9883 197.569 11.9883C198.869 11.9883 199.672 12.2695 199.977 12.832C200.071 13.0312 200.117 13.2539 200.117 13.5V13.623C200.117 14.2441 199.983 14.7305 199.713 15.082C199.455 15.4336 199.039 15.75 198.465 16.0312C197.903 16.3125 197.451 16.4531 197.112 16.4531C196.784 16.4531 196.573 16.4297 196.479 16.3828C196.397 16.3359 196.326 16.2773 196.268 16.207C196.209 16.125 196.133 16.0664 196.039 16.0312C195.957 15.9961 195.916 15.9082 195.916 15.7676C195.916 15.627 195.975 15.4863 196.092 15.3457C196.209 15.1934 196.291 15.0352 196.338 14.8711C195.565 14.9062 194.756 15.0879 193.912 15.416C193.069 15.7324 192.342 16.0898 191.733 16.4883C191.135 16.8867 190.637 17.2676 190.239 17.6309C189.84 17.9941 189.641 18.2637 189.641 18.4395C189.641 18.6035 189.91 18.7383 190.45 18.8438C192.875 19.3242 194.469 19.7402 195.231 20.0918C195.992 20.4434 196.52 20.8418 196.813 21.2871C197.106 21.7324 197.252 22.1367 197.252 22.5C197.252 23.25 196.953 23.959 196.356 24.627C195.758 25.2949 195.02 25.8398 194.141 26.2617C192.254 27.1875 190.608 27.6504 189.201 27.6504C187.807 27.6504 186.84 27.4336 186.301 27C185.774 26.5781 185.51 26.0742 185.51 25.4883C185.51 24.9023 185.657 24.3633 185.95 23.8711C186.254 23.3672 186.641 23.1152 187.11 23.1152C187.578 23.1152 187.813 23.2383 187.813 23.4844Z" fill="#7EB693"/>
</svg>
